<svg width="699" height="553" viewBox="0 0 699 553" fill="none" xmlns="http://www.w3.org/2000/svg">
<path d="M222.19 3.09292C222.19 4.4266 220.793 5.68584 218.824 5.68584C216.855 5.68584 215.458 4.4266 215.458 3.09292C215.458 1.75924 216.855 0.5 218.824 0.5C220.793 0.5 222.19 1.75924 222.19 3.09292Z" stroke="#00D4FF"/>
<circle cx="324.757" cy="7.73232" r="2.59292" stroke="#00D4FF"/>
<circle cx="391.255" cy="43.3008" r="2.59292" stroke="#00D4FF"/>
<circle cx="487.135" cy="150.007" r="2.59292" stroke="#00D4FF"/>
<circle cx="553.633" cy="194.854" r="2.59292" stroke="#00D4FF"/>
<circle cx="661.885" cy="300.013" r="2.59292" stroke="#00D4FF"/>
<circle cx="695.907" cy="187.122" r="2.59292" stroke="#00D4FF"/>
<circle cx="511.878" cy="337.128" r="2.59292" stroke="#00D4FF"/>
<circle cx="603.119" cy="80.4159" r="2.59292" stroke="#00D4FF"/>
<path d="M403.126 202.586C403.126 203.92 401.729 205.179 399.76 205.179C397.791 205.179 396.394 203.92 396.394 202.586C396.394 201.253 397.791 199.993 399.76 199.993C401.729 199.993 403.126 201.253 403.126 202.586Z" stroke="#00D4FF"/>
<circle cx="265.991" cy="4.63943" r="2.59292" stroke="#00D4FF"/>
<line x1="124.639" y1="54.5781" x2="156.08" y2="15.0948" stroke="#F8B500"/>
<line x1="124.82" y1="54.436" x2="165.765" y2="35.4256" stroke="#F8B500"/>
<line x1="171.069" y1="33.1863" x2="200.316" y2="31.7239" stroke="#F8B500"/>
<line x1="161.491" y1="14.9162" x2="216.329" y2="3.94863" stroke="#F8B500"/>
<line x1="170.846" y1="31.7894" x2="216.909" y2="5.46722" stroke="#F8B500"/>
<line x1="140.01" y1="99.8919" x2="199.966" y2="31.8929" stroke="#00D4FF"/>
<line x1="124.038" y1="59.8371" x2="138.661" y2="100.051" stroke="#00D4FF"/>
<circle cx="123.717" cy="57.219" r="2.59292" stroke="#00D4FF"/>
<line x1="167.167" y1="36.8078" x2="140.113" y2="99.6886" stroke="#00D4FF"/>
<circle cx="139.955" cy="102.84" r="3.36615" stroke="#00D4FF"/>
<circle cx="168.565" cy="34.0221" r="2.59292" stroke="#00D4FF"/>
<line x1="221.554" y1="3.20759" x2="263.961" y2="3.93877" stroke="#F8B500"/>
<line x1="269.216" y1="4.69141" x2="293.345" y2="12.0031" stroke="#F8B500"/>
<line x1="298.228" y1="12.721" x2="322.357" y2="8.33393" stroke="#F8B500"/>
<line x1="205.373" y1="30.2683" x2="293.113" y2="14.9137" stroke="#F8B500"/>
<circle cx="295.374" cy="13.9181" r="2.59292" stroke="#00D4FF"/>
<line x1="204.437" y1="33.4486" x2="224.91" y2="71.4695" stroke="#F8B500"/>
<path d="M248.48 188.668C248.48 190.002 247.083 191.261 245.114 191.261C243.145 191.261 241.748 190.002 241.748 188.668C241.748 187.334 243.145 186.075 245.114 186.075C247.083 186.075 248.48 187.334 248.48 188.668Z" stroke="#00D4FF"/>
<path d="M250.026 202.586C250.026 203.92 248.629 205.179 246.66 205.179C244.691 205.179 243.294 203.92 243.294 202.586C243.294 201.253 244.691 199.993 246.66 199.993C248.629 199.993 250.026 201.253 250.026 202.586Z" stroke="#00D4FF"/>
<circle cx="218.051" cy="214.958" r="2.59292" stroke="#00D4FF"/>
<circle cx="100.52" cy="230.423" r="2.59292" stroke="#00D4FF"/>
<path d="M217.551 288.415C217.551 290.384 216.292 291.781 214.958 291.781C213.624 291.781 212.365 290.384 212.365 288.415C212.365 286.446 213.624 285.049 214.958 285.049C216.292 285.049 217.551 286.446 217.551 288.415Z" stroke="#00D4FF"/>
<path d="M243.841 286.868C243.841 288.837 242.581 290.235 241.248 290.235C239.914 290.235 238.655 288.837 238.655 286.868C238.655 284.9 239.914 283.502 241.248 283.502C242.581 283.502 243.841 284.9 243.841 286.868Z" stroke="#00D4FF"/>
<circle cx="242.795" cy="259.805" r="2.59292" stroke="#00D4FF"/>
<path d="M5.68584 345.634C5.68584 347.603 4.4266 349 3.09292 349C1.75924 349 0.5 347.603 0.5 345.634C0.5 343.665 1.75924 342.268 3.09292 342.268C4.4266 342.268 5.68584 343.665 5.68584 345.634Z" stroke="#00D4FF"/>
<circle cx="119.077" cy="326.303" r="2.59292" stroke="#00D4FF"/>
<path d="M180.436 371.924C180.436 373.893 179.177 375.29 177.843 375.29C176.509 375.29 175.25 373.893 175.25 371.924C175.25 369.955 176.509 368.558 177.843 368.558C179.177 368.558 180.436 369.955 180.436 371.924Z" stroke="#00D4FF"/>
<circle cx="304.653" cy="341.768" r="2.59292" stroke="#00D4FF"/>
<path d="M375.29 292.281C375.29 293.615 373.893 294.874 371.924 294.874C369.955 294.874 368.558 293.615 368.558 292.281C368.558 290.947 369.955 289.688 371.924 289.688C373.893 289.688 375.29 290.947 375.29 292.281Z" stroke="#00D4FF"/>
<circle cx="303.106" cy="420.637" r="2.59292" stroke="#00D4FF"/>
<path d="M25.7898 368.831C25.7898 370.8 24.5306 372.197 23.1969 372.197C21.8632 372.197 20.604 370.8 20.604 368.831C20.604 366.862 21.8632 365.465 23.1969 365.465C24.5306 365.465 25.7898 366.862 25.7898 368.831Z" stroke="#00D4FF"/>
<path d="M79.9159 374.243C79.9159 375.577 78.5187 376.836 76.5497 376.836C74.5808 376.836 73.1836 375.577 73.1836 374.243C73.1836 372.91 74.5808 371.65 76.5497 371.65C78.5187 371.65 79.9159 372.91 79.9159 374.243Z" stroke="#00D4FF"/>
<circle cx="85.8286" cy="385.842" r="3.36615" stroke="#00D4FF"/>
<path d="M117.031 405.173C117.031 406.506 115.633 407.765 113.664 407.765C111.696 407.765 110.298 406.506 110.298 405.173C110.298 403.839 111.696 402.58 113.664 402.58C115.633 402.58 117.031 403.839 117.031 405.173Z" stroke="#00D4FF"/>
<path d="M222.19 508.785C222.19 510.119 220.793 511.378 218.824 511.378C216.855 511.378 215.458 510.119 215.458 508.785C215.458 507.452 216.855 506.192 218.824 506.192C220.793 506.192 222.19 507.452 222.19 508.785Z" stroke="#00D4FF"/>
<path d="M366.011 480.176C366.011 482.145 364.752 483.542 363.418 483.542C362.084 483.542 360.825 482.145 360.825 480.176C360.825 478.207 362.084 476.81 363.418 476.81C364.752 476.81 366.011 478.207 366.011 480.176Z" stroke="#00D4FF"/>
<circle cx="262.898" cy="548.993" r="2.59292" stroke="#00D4FF"/>
<path d="M147.96 501.826C147.96 503.795 146.701 505.192 145.367 505.192C144.034 505.192 142.774 503.795 142.774 501.826C142.774 499.857 144.034 498.46 145.367 498.46C146.701 498.46 147.96 499.857 147.96 501.826Z" stroke="#00D4FF"/>
<path d="M240.747 317.797C240.747 319.766 239.488 321.164 238.154 321.164C236.821 321.164 235.562 319.766 235.562 317.797C235.562 315.828 236.821 314.431 238.154 314.431C239.488 314.431 240.747 315.828 240.747 317.797Z" stroke="#00D4FF"/>
<path d="M185.076 154.646C185.076 155.98 183.678 157.239 181.709 157.239C179.74 157.239 178.343 155.98 178.343 154.646C178.343 153.312 179.74 152.053 181.709 152.053C183.678 152.053 185.076 153.312 185.076 154.646Z" stroke="#00D4FF"/>
<path d="M90.7416 117.531C90.7416 118.865 89.3444 120.124 87.3754 120.124C85.4065 120.124 84.0093 118.865 84.0093 117.531C84.0093 116.197 85.4065 114.938 87.3754 114.938C89.3444 114.938 90.7416 116.197 90.7416 117.531Z" stroke="#00D4FF"/>
<path d="M92.2875 102.066C92.2875 103.4 90.8903 104.659 88.9213 104.659C86.9524 104.659 85.5552 103.4 85.5552 102.066C85.5552 100.733 86.9524 99.4735 88.9213 99.4735C90.8903 99.4735 92.2875 100.733 92.2875 102.066Z" stroke="#00D4FF"/>
<circle cx="151.553" cy="150.007" r="2.59292" stroke="#00D4FF"/>
<circle cx="125.263" cy="153.1" r="1.04646" stroke="#00D4FF"/>
<path d="M178.889 194.081C178.889 196.05 177.63 197.447 176.297 197.447C174.963 197.447 173.704 196.05 173.704 194.081C173.704 192.112 174.963 190.715 176.297 190.715C177.63 190.715 178.889 192.112 178.889 194.081Z" stroke="#00D4FF"/>
<circle cx="145.367" cy="182.482" r="2.59292" stroke="#00D4FF"/>
<circle cx="112.892" cy="146.914" r="1.04646" stroke="#00D4FF"/>
<circle cx="85.0557" cy="137.635" r="1.04646" stroke="#00D4FF"/>
<circle cx="92.7872" cy="140.728" r="1.04646" stroke="#00D4FF"/>
<circle cx="80.4156" cy="153.1" r="1.04646" stroke="#00D4FF"/>
<circle cx="85.0557" cy="148.46" r="1.04646" stroke="#00D4FF"/>
<circle cx="77.3233" cy="142.274" r="1.04646" stroke="#00D4FF"/>
<circle cx="75.7764" cy="129.903" r="1.04646" stroke="#00D4FF"/>
<circle cx="102.066" cy="146.914" r="1.04646" stroke="#00D4FF"/>
<circle cx="108.252" cy="98.9735" r="2.59292" stroke="#00D4FF"/>
<circle cx="108.252" cy="78.8694" r="2.59292" stroke="#00D4FF"/>
<path d="M185.076 125.263C185.076 126.597 183.678 127.856 181.709 127.856C179.74 127.856 178.343 126.597 178.343 125.263C178.343 123.93 179.74 122.67 181.709 122.67C183.678 122.67 185.076 123.93 185.076 125.263Z" stroke="#00D4FF"/>
<circle cx="202.586" cy="30.9292" r="2.59292" stroke="#00D4FF"/>
<line x1="138.648" y1="105.544" x2="135.724" y2="112.124" stroke="#00D4FF"/>
<line x1="142.816" y1="103.438" x2="179.375" y2="123.18" stroke="#00D4FF"/>
<line x1="181.436" y1="126.81" x2="181.436" y2="151.553" stroke="#00D4FF"/>
<line x1="184.118" y1="153.117" x2="214.827" y2="144.343" stroke="#00D4FF"/>
<line x1="214.725" y1="143.069" x2="184.015" y2="126.252" stroke="#00D4FF"/>
<line x1="219.043" y1="146.02" x2="243.903" y2="185.503" stroke="#00D4FF"/>
<line x1="246.172" y1="190.846" x2="246.903" y2="199.62" stroke="#00D4FF"/>
<line x1="243.913" y1="200.794" x2="183.957" y2="156.192" stroke="#00D4FF"/>
<line x1="226.425" y1="76.7418" x2="244.705" y2="185.686" stroke="#F8B500"/>
<line x1="183.871" y1="123.3" x2="223.354" y2="75.7741" stroke="#00D4FF"/>
<line x1="137.42" y1="102.183" x2="110.367" y2="99.9895" stroke="#00D4FF"/>
<line x1="108.752" y1="102.066" x2="108.752" y2="112.892" stroke="#00D4FF"/>
<line x1="178.818" y1="153.252" x2="136.41" y2="118.156" stroke="#C4C4C4"/>
<line x1="178.844" y1="153.272" x2="144.479" y2="128.412" stroke="#C4C4C4"/>
<line x1="178.858" y1="153.281" x2="145.224" y2="130.615" stroke="#C4C4C4"/>
<line x1="179.545" y1="153.249" x2="137.138" y2="117.421" stroke="#00D4FF"/>
<line x1="136.418" y1="117.5" x2="142.999" y2="127.736" stroke="#C4C4C4"/>
<line x1="145.11" y1="129.047" x2="137.067" y2="118.811" stroke="#C4C4C4"/>
<line x1="142.88" y1="125.415" x2="169.934" y2="145.888" stroke="#C4C4C4"/>
<line x1="143.646" y1="126.851" x2="138.528" y2="120.271" stroke="#C4C4C4"/>
<line x1="117.003" y1="128.969" x2="139.67" y2="129.701" stroke="#00D4FF"/>
<line x1="117.003" y1="127.507" x2="140.4" y2="128.238" stroke="#C4C4C4"/>
<line x1="114.837" y1="126.046" x2="139.697" y2="128.24" stroke="#C4C4C4"/>
<line x1="139.977" y1="128.295" x2="131.203" y2="115.865" stroke="#C4C4C4"/>
<line x1="139.268" y1="128.325" x2="129.031" y2="115.895" stroke="#C4C4C4"/>
<line x1="139.3" y1="128.361" x2="126.87" y2="115.931" stroke="#C4C4C4"/>
<line x1="138.855" y1="127.771" x2="111.802" y2="124.115" stroke="#C4C4C4"/>
<line x1="138.718" y1="127.732" x2="110.934" y2="115.302" stroke="#C4C4C4"/>
<line x1="138.743" y1="127.742" x2="110.227" y2="116.775" stroke="#C4C4C4"/>
<line x1="138.768" y1="127.751" x2="109.521" y2="118.246" stroke="#C4C4C4"/>
<line x1="138.819" y1="127.765" x2="111.035" y2="121.916" stroke="#C4C4C4"/>
<line x1="116.721" y1="130.746" x2="125.495" y2="152.681" stroke="#00D4FF"/>
<line x1="126.084" y1="152.579" x2="139.976" y2="132.837" stroke="#00D4FF"/>
<line x1="143.757" y1="132.901" x2="151.068" y2="147.525" stroke="#00D4FF"/>
<line x1="126.427" y1="153.102" x2="148.362" y2="150.178" stroke="#00D4FF"/>
<line x1="153.617" y1="149.447" x2="179.208" y2="153.103" stroke="#00D4FF"/>
<line x1="151.84" y1="152.975" x2="145.991" y2="179.297" stroke="#00D4FF"/>
<line x1="126.911" y1="154.054" x2="143.727" y2="179.645" stroke="#00D4FF"/>
<line x1="173.113" y1="193.55" x2="147.522" y2="184.044" stroke="#00D4FF"/>
<line x1="181.095" y1="157.317" x2="176.708" y2="191.682" stroke="#00D4FF"/>
<line x1="178.467" y1="193.316" x2="244.272" y2="201.359" stroke="#00D4FF"/>
<line x1="220.602" y1="214.563" x2="243.999" y2="203.596" stroke="#00D4FF"/>
<line x1="214.724" y1="213.992" x2="178.896" y2="194.25" stroke="#00D4FF"/>
<line x1="225.661" y1="71.2862" x2="322.176" y2="9.13658" stroke="#F8B500"/>
<line x1="388.014" y1="42.1679" x2="327.327" y2="9.26523" stroke="#F8B500"/>
<line x1="217.392" y1="141.117" x2="223.972" y2="76.7738" stroke="#00D4FF"/>
<circle cx="218.051" cy="143.821" r="2.59292" stroke="#00D4FF"/>
<circle cx="225.783" cy="74.23" r="2.59292" stroke="#00D4FF"/>
<line x1="100.836" y1="131.167" x2="111.803" y2="129.705" stroke="#00D4FF"/>
<line x1="97.915" y1="119.468" x2="109.614" y2="118.006" stroke="#C4C4C4"/>
<line x1="97.1145" y1="118.75" x2="105.157" y2="116.557" stroke="#C4C4C4"/>
<line x1="98.6773" y1="120.927" x2="110.376" y2="120.196" stroke="#C4C4C4"/>
<line x1="100.083" y1="127.515" x2="112.513" y2="125.321" stroke="#C4C4C4"/>
<line x1="100.836" y1="128.974" x2="111.803" y2="127.511" stroke="#C4C4C4"/>
<line x1="101.597" y1="129.701" x2="111.834" y2="128.97" stroke="#C4C4C4"/>
<line x1="97.1248" y1="126.791" x2="111.748" y2="123.135" stroke="#C4C4C4"/>
<line x1="96.3715" y1="125.335" x2="110.995" y2="120.948" stroke="#C4C4C4"/>
<line x1="96.4121" y1="123.862" x2="110.304" y2="120.937" stroke="#C4C4C4"/>
<line x1="112.624" y1="115.809" x2="127.978" y2="116.54" stroke="#C4C4C4"/>
<line x1="117.531" y1="118.578" x2="129.902" y2="118.578" stroke="#C4C4C4"/>
<line x1="125.263" y1="121.67" x2="132.995" y2="121.67" stroke="#C4C4C4"/>
<line x1="128.356" y1="123.217" x2="134.542" y2="123.217" stroke="#C4C4C4"/>
<line x1="120.624" y1="120.124" x2="131.449" y2="120.124" stroke="#C4C4C4"/>
<line x1="120.624" y1="120.124" x2="131.449" y2="120.124" stroke="#C4C4C4"/>
<line x1="113.01" y1="131.218" x2="102.773" y2="145.842" stroke="#00D4FF"/>
<line x1="102.066" y1="146.414" x2="112.892" y2="146.414" stroke="#00D4FF"/>
<line x1="114.333" y1="146.597" x2="124.569" y2="153.177" stroke="#C4C4C4"/>
<line x1="126.26" y1="154.287" x2="126.991" y2="163.062" stroke="#C4C4C4"/>
<line x1="126.082" y1="164.95" x2="121.695" y2="168.605" stroke="#C4C4C4"/>
<line x1="119.826" y1="169.445" x2="103.009" y2="166.52" stroke="#C4C4C4"/>
<line x1="101.865" y1="165.33" x2="101.134" y2="154.362" stroke="#C4C4C4"/>
<line x1="102.102" y1="152.441" x2="111.607" y2="146.591" stroke="#C4C4C4"/>
<line x1="101.02" y1="146.914" x2="101.02" y2="153.1" stroke="#00D4FF"/>
<path d="M117.031 129.129C117.031 131.098 115.772 132.496 114.438 132.496C113.104 132.496 111.845 131.098 111.845 129.129C111.845 127.161 113.104 125.763 114.438 125.763C115.772 125.763 117.031 127.161 117.031 129.129Z" stroke="#00D4FF"/>
<path d="M137.135 115.211C137.135 117.18 135.876 118.578 134.542 118.578C133.208 118.578 131.949 117.18 131.949 115.211C131.949 113.242 133.208 111.845 134.542 111.845C135.876 111.845 137.135 113.242 137.135 115.211Z" stroke="#00D4FF"/>
<path d="M144.867 130.676C144.867 132.645 143.608 134.042 142.275 134.042C140.941 134.042 139.682 132.645 139.682 130.676C139.682 128.707 140.941 127.31 142.275 127.31C143.608 127.31 144.867 128.707 144.867 130.676Z" stroke="#00D4FF"/>
<line x1="136.457" y1="117.573" x2="140.844" y2="127.81" stroke="#00D4FF"/>
<line x1="178.875" y1="153.292" x2="144.51" y2="132.088" stroke="#00D4FF"/>
<line x1="110.423" y1="115.077" x2="132.358" y2="115.808" stroke="#00D4FF"/>
<path d="M110.845 115.211C110.845 117.18 109.586 118.578 108.252 118.578C106.918 118.578 105.659 117.18 105.659 115.211C105.659 113.242 106.918 111.845 108.252 111.845C109.586 111.845 110.845 113.242 110.845 115.211Z" stroke="#00D4FF"/>
<line x1="109.406" y1="117.578" x2="113.062" y2="126.352" stroke="#00D4FF"/>
<line x1="96.2735" y1="123.522" x2="97.0047" y2="127.178" stroke="#00D4FF"/>
<circle cx="95.8805" cy="120.624" r="2.59292" stroke="#00D4FF"/>
<path d="M101.566 129.903C101.566 131.236 100.169 132.496 98.2001 132.496C96.2312 132.496 94.834 131.236 94.834 129.903C94.834 128.569 96.2312 127.31 98.2001 127.31C100.169 127.31 101.566 128.569 101.566 129.903Z" stroke="#00D4FF"/>
<line x1="107.714" y1="95.8602" x2="106.983" y2="81.2367" stroke="#00D4FF"/>
<line x1="90.2534" y1="99.9387" x2="104.877" y2="78.7347" stroke="#00D4FF"/>
<line x1="107.814" y1="75.7937" x2="120.975" y2="58.2456" stroke="#00D4FF"/>
<line x1="87.2415" y1="114.81" x2="87.9727" y2="104.574" stroke="#00D4FF"/>
<line x1="90.4033" y1="104.436" x2="95.5215" y2="118.329" stroke="#00D4FF"/>
<line x1="69.1964" y1="138.55" x2="75.0458" y2="134.895" stroke="#C4C4C4"/>
<line x1="76.5376" y1="135.257" x2="77.2688" y2="141.106" stroke="#C4C4C4"/>
<line x1="76.4459" y1="142.924" x2="70.5965" y2="150.967" stroke="#C4C4C4"/>
<line x1="65.6267" y1="152.745" x2="68.4427" y2="151.668" stroke="#C4C4C4"/>
<line x1="65.3201" y1="152.745" x2="68.2448" y2="141.047" stroke="#C4C4C4"/>
<circle cx="69.5904" cy="151.553" r="1.04646" stroke="#00D4FF"/>
<circle cx="64.9512" cy="153.1" r="1.04646" stroke="#00D4FF"/>
<mask id="path-166-inside-1" fill="white">
<ellipse cx="81.1892" cy="137.635" rx="0.77323" ry="1.54646"/>
</mask>
<path d="M80.9625 137.635C80.9625 137.94 80.8984 138.168 80.8416 138.281C80.8133 138.338 80.8054 138.329 80.8444 138.296C80.8898 138.258 81.0091 138.181 81.1892 138.181V140.181C81.9856 140.181 82.4373 139.562 82.6304 139.176C82.8534 138.73 82.9625 138.184 82.9625 137.635H80.9625ZM81.1892 138.181C81.3693 138.181 81.4887 138.258 81.5341 138.296C81.5731 138.329 81.5652 138.338 81.5369 138.281C81.48 138.168 81.416 137.94 81.416 137.635H79.416C79.416 138.184 79.5251 138.73 79.7481 139.176C79.9411 139.562 80.3929 140.181 81.1892 140.181V138.181ZM81.416 137.635C81.416 137.33 81.48 137.102 81.5369 136.989C81.5652 136.932 81.5731 136.941 81.5341 136.974C81.4887 137.012 81.3693 137.089 81.1892 137.089V135.089C80.3929 135.089 79.9411 135.708 79.7481 136.094C79.5251 136.54 79.416 137.086 79.416 137.635H81.416ZM81.1892 137.089C81.0091 137.089 80.8898 137.012 80.8444 136.974C80.8054 136.941 80.8133 136.932 80.8416 136.989C80.8984 137.102 80.9625 137.33 80.9625 137.635H82.9625C82.9625 137.086 82.8534 136.54 82.6304 136.094C82.4373 135.708 81.9856 135.089 81.1892 135.089V137.089Z" fill="#00D4FF" mask="url(#path-166-inside-1)"/>
<mask id="path-168-inside-2" fill="white">
<ellipse cx="65.7249" cy="163.925" rx="0.77323" ry="1.54646"/>
</mask>
<path d="M65.4981 163.925C65.4981 164.23 65.4341 164.457 65.3772 164.571C65.3489 164.628 65.3411 164.619 65.38 164.586C65.4255 164.548 65.5448 164.471 65.7249 164.471V166.471C66.5212 166.471 66.973 165.852 67.1661 165.465C67.3891 165.02 67.4981 164.473 67.4981 163.925H65.4981ZM65.7249 164.471C65.905 164.471 66.0243 164.548 66.0698 164.586C66.1087 164.619 66.1009 164.628 66.0726 164.571C66.0157 164.457 65.9517 164.23 65.9517 163.925H63.9517C63.9517 164.473 64.0607 165.02 64.2837 165.465C64.4768 165.852 64.9285 166.471 65.7249 166.471V164.471ZM65.9517 163.925C65.9517 163.619 66.0157 163.392 66.0726 163.278C66.1009 163.222 66.1087 163.23 66.0698 163.263C66.0243 163.302 65.905 163.378 65.7249 163.378V161.378C64.9285 161.378 64.4768 161.998 64.2837 162.384C64.0607 162.83 63.9517 163.376 63.9517 163.925H65.9517ZM65.7249 163.378C65.5448 163.378 65.4255 163.302 65.38 163.263C65.3411 163.23 65.3489 163.222 65.3772 163.278C65.4341 163.392 65.4981 163.619 65.4981 163.925H67.4981C67.4981 163.376 67.3891 162.83 67.1661 162.384C66.973 161.998 66.5212 161.378 65.7249 161.378V163.378Z" fill="#00D4FF" mask="url(#path-168-inside-2)"/>
<mask id="path-170-inside-3" fill="white">
<ellipse cx="98.9732" cy="187.895" rx="1.54646" ry="0.77323"/>
</mask>
<path d="M99.5197 187.895C99.5197 187.715 99.5962 187.595 99.6347 187.55C99.6676 187.511 99.6761 187.519 99.6195 187.547C99.5058 187.604 99.2787 187.668 98.9732 187.668V189.668C99.5218 189.668 100.068 189.559 100.514 189.336C100.9 189.143 101.52 188.691 101.52 187.895H99.5197ZM98.9732 187.668C98.6678 187.668 98.4407 187.604 98.3269 187.547C98.2703 187.519 98.2788 187.511 98.3118 187.55C98.3502 187.595 98.4268 187.715 98.4268 187.895H96.4268C96.4268 188.691 97.0463 189.143 97.4325 189.336C97.8785 189.559 98.4246 189.668 98.9732 189.668V187.668ZM98.4268 187.895C98.4268 188.075 98.3502 188.194 98.3118 188.24C98.2788 188.279 98.2703 188.271 98.3269 188.243C98.4407 188.186 98.6678 188.122 98.9732 188.122V186.122C98.4246 186.122 97.8785 186.231 97.4325 186.454C97.0463 186.647 96.4268 187.099 96.4268 187.895H98.4268ZM98.9732 188.122C99.2787 188.122 99.5058 188.186 99.6195 188.243C99.6761 188.271 99.6676 188.279 99.6347 188.24C99.5962 188.194 99.5197 188.075 99.5197 187.895H101.52C101.52 187.099 100.9 186.647 100.514 186.454C100.068 186.231 99.5218 186.122 98.9732 186.122V188.122Z" fill="#00D4FF" mask="url(#path-170-inside-3)"/>
<circle cx="106.706" cy="199.493" r="1.04646" stroke="#00D4FF"/>
<mask id="path-173-inside-4" fill="white">
<ellipse cx="107.479" cy="180.936" rx="0.77323" ry="1.54646"/>
</mask>
<path d="M107.253 180.936C107.253 181.241 107.188 181.468 107.132 181.582C107.103 181.639 107.095 181.63 107.134 181.597C107.18 181.559 107.299 181.482 107.479 181.482V183.482C108.276 183.482 108.727 182.863 108.92 182.477C109.143 182.031 109.253 181.484 109.253 180.936H107.253ZM107.479 181.482C107.659 181.482 107.779 181.559 107.824 181.597C107.863 181.63 107.855 181.639 107.827 181.582C107.77 181.468 107.706 181.241 107.706 180.936H105.706C105.706 181.484 105.815 182.031 106.038 182.477C106.231 182.863 106.683 183.482 107.479 183.482V181.482ZM107.706 180.936C107.706 180.63 107.77 180.403 107.827 180.29C107.855 180.233 107.863 180.241 107.824 180.274C107.779 180.313 107.659 180.389 107.479 180.389V178.389C106.683 178.389 106.231 179.009 106.038 179.395C105.815 179.841 105.706 180.387 105.706 180.936H107.706ZM107.479 180.389C107.299 180.389 107.18 180.313 107.134 180.274C107.095 180.241 107.103 180.233 107.132 180.29C107.188 180.403 107.253 180.63 107.253 180.936H109.253C109.253 180.387 109.143 179.841 108.92 179.395C108.727 179.009 108.276 178.389 107.479 178.389V180.389Z" fill="#00D4FF" mask="url(#path-173-inside-4)"/>
<circle cx="92.7872" cy="179.389" r="1.04646" stroke="#00D4FF"/>
<circle cx="17.0113" cy="204.133" r="1.04646" stroke="#00D4FF"/>
<circle cx="12.3717" cy="214.958" r="1.04646" stroke="#00D4FF"/>
<mask id="path-178-inside-5" fill="white">
<ellipse cx="25.5164" cy="211.865" rx="0.77323" ry="1.54646"/>
</mask>
<path d="M25.2896 211.865C25.2896 212.171 25.2256 212.398 25.1687 212.511C25.1404 212.568 25.1326 212.559 25.1715 212.527C25.217 212.488 25.3363 212.412 25.5164 212.412V214.412C26.3127 214.412 26.7645 213.792 26.9576 213.406C27.1806 212.96 27.2896 212.414 27.2896 211.865H25.2896ZM25.5164 212.412C25.6965 212.412 25.8158 212.488 25.8613 212.527C25.9002 212.559 25.8924 212.568 25.8641 212.511C25.8072 212.398 25.7432 212.171 25.7432 211.865H23.7432C23.7432 212.414 23.8522 212.96 24.0752 213.406C24.2683 213.792 24.72 214.412 25.5164 214.412V212.412ZM25.7432 211.865C25.7432 211.56 25.8072 211.333 25.8641 211.219C25.8924 211.162 25.9002 211.171 25.8613 211.204C25.8158 211.242 25.6965 211.319 25.5164 211.319V209.319C24.72 209.319 24.2683 209.938 24.0752 210.324C23.8522 210.77 23.7432 211.316 23.7432 211.865H25.7432ZM25.5164 211.319C25.3363 211.319 25.217 211.242 25.1715 211.204C25.1326 211.171 25.1404 211.162 25.1687 211.219C25.2256 211.333 25.2896 211.56 25.2896 211.865H27.2896C27.2896 211.316 27.1806 210.77 26.9576 210.324C26.7645 209.938 26.3127 209.319 25.5164 209.319V211.319Z" fill="#00D4FF" mask="url(#path-178-inside-5)"/>
<circle cx="34.022" cy="247.434" r="1.04646" stroke="#00D4FF"/>
<circle cx="23.1973" cy="264.445" r="1.04646" stroke="#00D4FF"/>
<circle cx="24.7432" cy="259.805" r="1.04646" stroke="#00D4FF"/>
<circle cx="34.022" cy="235.062" r="1.04646" stroke="#00D4FF"/>
<circle cx="23.1973" cy="225.783" r="1.04646" stroke="#00D4FF"/>
<circle cx="49.4864" cy="194.854" r="1.04646" stroke="#00D4FF"/>
<circle cx="52.5797" cy="216.504" r="1.04646" stroke="#00D4FF"/>
<circle cx="71.1373" cy="214.958" r="1.04646" stroke="#00D4FF"/>
<circle cx="72.6837" cy="225.783" r="1.04646" stroke="#00D4FF"/>
<circle cx="272.177" cy="214.958" r="1.04646" stroke="#00D4FF"/>
<mask id="path-190-inside-6" fill="white">
<ellipse cx="275.27" cy="242.021" rx="1.54646" ry="0.77323"/>
</mask>
<path d="M275.816 242.021C275.816 241.841 275.893 241.722 275.931 241.676C275.964 241.637 275.972 241.645 275.916 241.673C275.802 241.73 275.575 241.794 275.27 241.794V243.794C275.818 243.794 276.364 243.685 276.81 243.462C277.196 243.269 277.816 242.817 277.816 242.021H275.816ZM275.27 241.794C274.964 241.794 274.737 241.73 274.623 241.673C274.567 241.645 274.575 241.637 274.608 241.676C274.647 241.722 274.723 241.841 274.723 242.021H272.723C272.723 242.817 273.343 243.269 273.729 243.462C274.175 243.685 274.721 243.794 275.27 243.794V241.794ZM274.723 242.021C274.723 242.201 274.647 242.32 274.608 242.366C274.575 242.405 274.567 242.397 274.623 242.369C274.737 242.312 274.964 242.248 275.27 242.248V240.248C274.721 240.248 274.175 240.357 273.729 240.58C273.343 240.773 272.723 241.225 272.723 242.021H274.723ZM275.27 242.248C275.575 242.248 275.802 242.312 275.916 242.369C275.972 242.397 275.964 242.405 275.931 242.366C275.893 242.32 275.816 242.201 275.816 242.021H277.816C277.816 241.225 277.196 240.773 276.81 240.58C276.364 240.357 275.818 240.248 275.27 240.248V242.248Z" fill="#00D4FF" mask="url(#path-190-inside-6)"/>
<circle cx="307.746" cy="259.805" r="1.04646" stroke="#00D4FF"/>
<circle cx="304.652" cy="239.701" r="1.04646" stroke="#00D4FF"/>
<circle cx="330.942" cy="230.423" r="1.04646" stroke="#00D4FF"/>
<circle cx="313.931" cy="222.69" r="1.04646" stroke="#00D4FF"/>
<circle cx="313.931" cy="231.969" r="1.04646" stroke="#00D4FF"/>
<circle cx="330.942" cy="253.619" r="1.04646" stroke="#00D4FF"/>
<circle cx="341.768" cy="252.073" r="1.04646" stroke="#00D4FF"/>
<mask id="path-199-inside-7" fill="white">
<ellipse cx="310.065" cy="306.199" rx="0.77323" ry="1.54646"/>
</mask>
<path d="M309.838 306.199C309.838 306.505 309.774 306.732 309.718 306.845C309.689 306.902 309.681 306.893 309.72 306.861C309.766 306.822 309.885 306.746 310.065 306.746V308.746C310.862 308.746 311.313 308.126 311.506 307.74C311.729 307.294 311.838 306.748 311.838 306.199H309.838ZM310.065 306.746C310.245 306.746 310.365 306.822 310.41 306.861C310.449 306.893 310.441 306.902 310.413 306.845C310.356 306.732 310.292 306.505 310.292 306.199H308.292C308.292 306.748 308.401 307.294 308.624 307.74C308.817 308.126 309.269 308.746 310.065 308.746V306.746ZM310.292 306.199C310.292 305.894 310.356 305.666 310.413 305.553C310.441 305.496 310.449 305.505 310.41 305.538C310.365 305.576 310.245 305.653 310.065 305.653V303.653C309.269 303.653 308.817 304.272 308.624 304.658C308.401 305.104 308.292 305.65 308.292 306.199H310.292ZM310.065 305.653C309.885 305.653 309.766 305.576 309.72 305.538C309.681 305.505 309.689 305.496 309.718 305.553C309.774 305.666 309.838 305.894 309.838 306.199H311.838C311.838 305.65 311.729 305.104 311.506 304.658C311.313 304.272 310.862 303.653 310.065 303.653V305.653Z" fill="#00D4FF" mask="url(#path-199-inside-7)"/>
<circle cx="278.363" cy="318.571" r="1.04646" stroke="#00D4FF"/>
<circle cx="270.63" cy="320.117" r="1.04646" stroke="#00D4FF"/>
<circle cx="320.117" cy="262.898" r="1.04646" stroke="#00D4FF"/>
<circle cx="320.117" cy="245.887" r="1.04646" stroke="#00D4FF"/>
<circle cx="324.756" cy="239.701" r="1.04646" stroke="#00D4FF"/>
<circle cx="306.199" cy="275.27" r="1.04646" stroke="#00D4FF"/>
<circle cx="326.303" cy="278.363" r="1.04646" stroke="#00D4FF"/>
<circle cx="309.292" cy="272.177" r="1.04646" stroke="#00D4FF"/>
<circle cx="290.735" cy="255.166" r="1.04646" stroke="#00D4FF"/>
<circle cx="269.084" cy="276.816" r="1.04646" stroke="#00D4FF"/>
<circle cx="258.259" cy="298.467" r="1.04646" stroke="#00D4FF"/>
<circle cx="248.98" cy="324.756" r="1.04646" stroke="#00D4FF"/>
<circle cx="276.816" cy="300.013" r="1.04646" stroke="#00D4FF"/>
<circle cx="307.746" cy="300.013" r="1.04646" stroke="#00D4FF"/>
<mask id="path-215-inside-8" fill="white">
<ellipse cx="300.013" cy="282.229" rx="1.54646" ry="0.77323"/>
</mask>
<path d="M300.56 282.229C300.56 282.049 300.636 281.93 300.675 281.884C300.708 281.845 300.716 281.853 300.66 281.881C300.546 281.938 300.319 282.002 300.013 282.002V284.002C300.562 284.002 301.108 283.893 301.554 283.67C301.94 283.477 302.56 283.025 302.56 282.229H300.56ZM300.013 282.002C299.708 282.002 299.481 281.938 299.367 281.881C299.31 281.853 299.319 281.845 299.352 281.884C299.39 281.93 299.467 282.049 299.467 282.229H297.467C297.467 283.025 298.086 283.477 298.473 283.67C298.919 283.893 299.465 284.002 300.013 284.002V282.002ZM299.467 282.229C299.467 282.409 299.39 282.528 299.352 282.574C299.319 282.613 299.31 282.605 299.367 282.577C299.481 282.52 299.708 282.456 300.013 282.456V280.456C299.465 280.456 298.919 280.565 298.473 280.788C298.086 280.981 297.467 281.433 297.467 282.229H299.467ZM300.013 282.456C300.319 282.456 300.546 282.52 300.66 282.577C300.716 282.605 300.708 282.613 300.675 282.574C300.636 282.528 300.56 282.409 300.56 282.229H302.56C302.56 281.433 301.94 280.981 301.554 280.788C301.108 280.565 300.562 280.456 300.013 280.456V282.456Z" fill="#00D4FF" mask="url(#path-215-inside-8)"/>
<circle cx="77.3233" cy="197.947" r="1.04646" stroke="#00D4FF"/>
<mask id="path-218-inside-9" fill="white">
<ellipse cx="38.6617" cy="189.441" rx="1.54646" ry="0.77323"/>
</mask>
<path d="M39.2082 189.441C39.2082 189.261 39.2847 189.142 39.3232 189.096C39.3561 189.058 39.3646 189.065 39.308 189.094C39.1943 189.151 38.9672 189.215 38.6617 189.215V191.215C39.2103 191.215 39.7564 191.105 40.2024 190.883C40.5886 190.689 41.2082 190.238 41.2082 189.441H39.2082ZM38.6617 189.215C38.3562 189.215 38.1291 189.151 38.0154 189.094C37.9588 189.065 37.9673 189.058 38.0002 189.096C38.0387 189.142 38.1152 189.261 38.1152 189.441H36.1152C36.1152 190.238 36.7348 190.689 37.121 190.883C37.5669 191.105 38.1131 191.215 38.6617 191.215V189.215ZM38.1152 189.441C38.1152 189.621 38.0387 189.741 38.0002 189.786C37.9673 189.825 37.9588 189.817 38.0154 189.789C38.1291 189.732 38.3562 189.668 38.6617 189.668V187.668C38.1131 187.668 37.5669 187.777 37.121 188C36.7348 188.193 36.1152 188.645 36.1152 189.441H38.1152ZM38.6617 189.668C38.9672 189.668 39.1943 189.732 39.308 189.789C39.3646 189.817 39.3561 189.825 39.3232 189.786C39.2847 189.741 39.2082 189.621 39.2082 189.441H41.2082C41.2082 188.645 40.5886 188.193 40.2024 188C39.7564 187.777 39.2103 187.668 38.6617 187.668V189.668Z" fill="#00D4FF" mask="url(#path-218-inside-9)"/>
<circle cx="68.044" cy="139.181" r="1.04646" stroke="#00D4FF"/>
<line x1="76.2769" y1="129.903" x2="76.2769" y2="134.542" stroke="#00D4FF"/>
<circle cx="75.7764" cy="134.542" r="1.04646" stroke="#00D4FF"/>
<line x1="87.508" y1="120.006" x2="86.0457" y2="137.554" stroke="#00D4FF"/>
<line x1="76.4055" y1="129.13" x2="85.1796" y2="119.625" stroke="#00D4FF"/>
<line x1="86.0456" y1="139.016" x2="85.3145" y2="147.79" stroke="#00D4FF"/>
<line x1="85.2152" y1="146.643" x2="91.7957" y2="140.794" stroke="#00D4FF"/>
<line x1="93.8476" y1="140.739" x2="101.159" y2="145.126" stroke="#00D4FF"/>
<line x1="100.478" y1="153.132" x2="93.1661" y2="141.433" stroke="#00D4FF"/>
<circle cx="102.066" cy="153.1" r="1.04646" stroke="#00D4FF"/>
<circle cx="86.6016" cy="162.378" r="1.04646" stroke="#00D4FF"/>
<circle cx="94.3341" cy="159.285" r="1.04646" stroke="#00D4FF"/>
<line x1="81.4629" y1="152.609" x2="83.6564" y2="148.953" stroke="#00D4FF"/>
<line x1="70.2307" y1="151.637" x2="79.736" y2="152.368" stroke="#00D4FF"/>
<line x1="77.0302" y1="134.89" x2="80.6861" y2="137.083" stroke="#00D4FF"/>
<line x1="82.3767" y1="138.853" x2="84.5702" y2="147.627" stroke="#00D4FF"/>
<line x1="65.4517" y1="154.646" x2="65.4517" y2="163.925" stroke="#00D4FF"/>
<line x1="66.9368" y1="164.191" x2="79.3667" y2="153.223" stroke="#00D4FF"/>
<line x1="67.2292" y1="164.067" x2="86.2397" y2="162.605" stroke="#00D4FF"/>
<circle cx="102.066" cy="165.471" r="1.04646" stroke="#00D4FF"/>
<line x1="101.301" y1="166.402" x2="94.7201" y2="160.552" stroke="#00D4FF"/>
<line x1="87.619" y1="161.156" x2="93.4683" y2="159.693" stroke="#00D4FF"/>
<line x1="86.7428" y1="161.218" x2="100.635" y2="152.444" stroke="#00D4FF"/>
<line x1="143.678" y1="184.645" x2="102.732" y2="229.247" stroke="#00D4FF"/>
<line x1="102.871" y1="229.192" x2="173.064" y2="194.096" stroke="#00D4FF"/>
<line x1="103.029" y1="229.875" x2="214.885" y2="215.153" stroke="#00D4FF"/>
<line x1="103.32" y1="232.118" x2="212.264" y2="286.956" stroke="#00D4FF"/>
<line x1="218.389" y1="217.963" x2="215.464" y2="285.961" stroke="#00D4FF"/>
<line x1="6.49938" y1="345.402" x2="116.906" y2="327.123" stroke="#00D4FF"/>
<line x1="5.49986" y1="347.766" x2="21.5856" y2="366.777" stroke="#00D4FF"/>
<line x1="25.644" y1="368.796" x2="73.9014" y2="373.914" stroke="#00D4FF"/>
<line x1="78.9554" y1="373.912" x2="175.47" y2="371.718" stroke="#00D4FF"/>
<line x1="88.4046" y1="384.884" x2="175.414" y2="373.185" stroke="#00D4FF"/>
<line x1="78.6253" y1="376.293" x2="84.4747" y2="383.604" stroke="#00D4FF"/>
<line x1="25.7254" y1="368.812" x2="83.488" y2="384.897" stroke="#00D4FF"/>
<line x1="77.8663" y1="372.611" x2="118.081" y2="328.741" stroke="#00D4FF"/>
<line x1="175.17" y1="370.416" x2="121.794" y2="328.008" stroke="#00D4FF"/>
<line x1="179.537" y1="369.65" x2="235.837" y2="319.93" stroke="#00D4FF"/>
<line x1="121.92" y1="325.69" x2="211.854" y2="289.862" stroke="#00D4FF"/>
<line x1="102.124" y1="233.204" x2="118.941" y2="323.87" stroke="#00D4FF"/>
<line x1="247.635" y1="204.816" x2="243.979" y2="255.998" stroke="#00D4FF"/>
<line x1="243.247" y1="261.861" x2="240.992" y2="284.522" stroke="#00D4FF"/>
<line x1="217.123" y1="288.366" x2="238.327" y2="286.903" stroke="#00D4FF"/>
<line x1="235.767" y1="316.216" x2="216.757" y2="290.625" stroke="#00D4FF"/>
<line x1="237.864" y1="315.144" x2="240.058" y2="289.553" stroke="#00D4FF"/>
<line x1="100.642" y1="233.46" x2="83.0941" y2="283.91" stroke="#00D4FF"/>
<line x1="6.27601" y1="344.769" x2="79.3932" y2="288.468" stroke="#00D4FF"/>
<line x1="83.7144" y1="288.518" x2="118.079" y2="324.346" stroke="#00D4FF"/>
<line x1="88.7773" y1="386.446" x2="111.444" y2="403.995" stroke="#00D4FF"/>
<line x1="115.302" y1="403.211" x2="175.258" y2="373.233" stroke="#00D4FF"/>
<line x1="114.538" y1="407.89" x2="144.516" y2="499.286" stroke="#00D4FF"/>
<line x1="115.875" y1="406.957" x2="217.508" y2="506.396" stroke="#00D4FF"/>
<line x1="302.936" y1="417.54" x2="304.398" y2="345.154" stroke="#00D4FF"/>
<line x1="180.784" y1="371.754" x2="299.965" y2="419.28" stroke="#00D4FF"/>
<circle cx="120.624" cy="168.564" r="1.04646" stroke="#00D4FF"/>
<circle cx="129.902" cy="171.657" r="1.04646" stroke="#00D4FF"/>
<circle cx="120.624" cy="168.564" r="1.04646" stroke="#00D4FF"/>
<circle cx="126.81" cy="163.925" r="1.04646" stroke="#00D4FF"/>
<line x1="87.4921" y1="162.971" x2="91.8792" y2="179.057" stroke="#00D4FF"/>
<line x1="92.7876" y1="180.436" x2="106.706" y2="180.436" stroke="#00D4FF"/>
<line x1="93.2531" y1="180.344" x2="98.3713" y2="186.925" stroke="#00D4FF"/>
<line x1="99.1266" y1="186.841" x2="106.438" y2="180.992" stroke="#00D4FF"/>
<line x1="106.269" y1="180.054" x2="102.613" y2="166.893" stroke="#00D4FF"/>
<line x1="91.7303" y1="178.885" x2="101.235" y2="166.455" stroke="#00D4FF"/>
<line x1="108.023" y1="180.189" x2="129.227" y2="171.415" stroke="#00D4FF"/>
<line x1="121.56" y1="168.488" x2="128.872" y2="171.413" stroke="#00D4FF"/>
<line x1="131.168" y1="171.469" x2="143.598" y2="180.243" stroke="#00D4FF"/>
<line x1="99.1085" y1="189.125" x2="105.689" y2="197.899" stroke="#00D4FF"/>
<line x1="77.1255" y1="196.41" x2="91.0178" y2="180.324" stroke="#00D4FF"/>
<line x1="77.5302" y1="196.969" x2="105.315" y2="198.431" stroke="#00D4FF"/>
<line x1="101.139" y1="228.101" x2="105.526" y2="199.586" stroke="#00D4FF"/>
<line x1="71.1788" y1="214.134" x2="76.297" y2="198.048" stroke="#00D4FF"/>
<line x1="71.6372" y1="216.504" x2="71.6372" y2="225.783" stroke="#00D4FF"/>
<line x1="97.8762" y1="231.592" x2="73.0164" y2="226.473" stroke="#00D4FF"/>
<line x1="72.6579" y1="214.596" x2="97.5177" y2="230.682" stroke="#00D4FF"/>
<line x1="77.9199" y1="197.922" x2="98.3927" y2="228.631" stroke="#00D4FF"/>
<line x1="106.562" y1="198.467" x2="142.389" y2="183.844" stroke="#00D4FF"/>
<line x1="107.981" y1="181.426" x2="106.518" y2="198.243" stroke="#00D4FF"/>
<line x1="108.246" y1="180.152" x2="142.611" y2="182.346" stroke="#00D4FF"/>
<line x1="38.4203" y1="188.321" x2="64.7424" y2="164.923" stroke="#00D4FF"/>
<line x1="38.962" y1="189.702" x2="48.4672" y2="194.089" stroke="#00D4FF"/>
<line x1="17.2705" y1="202.902" x2="37.0121" y2="189.741" stroke="#00D4FF"/>
<line x1="17.8823" y1="204.408" x2="25.194" y2="210.989" stroke="#00D4FF"/>
<line x1="12.6996" y1="214.093" x2="16.3555" y2="205.319" stroke="#00D4FF"/>
<line x1="13.069" y1="214.525" x2="24.7677" y2="212.331" stroke="#00D4FF"/>
<line x1="13.5285" y1="215.408" x2="22.3026" y2="224.914" stroke="#00D4FF"/>
<line x1="23.3427" y1="225.487" x2="29.9233" y2="224.756" stroke="#00D4FF"/>
<line x1="26.0555" y1="212.637" x2="30.4426" y2="223.604" stroke="#00D4FF"/>
<line x1="33.3432" y1="234.433" x2="23.1068" y2="227.122" stroke="#00D4FF"/>
<line x1="34.5225" y1="230.422" x2="34.5225" y2="233.515" stroke="#00D4FF"/>
<line x1="31.1562" y1="225.76" x2="33.3497" y2="230.147" stroke="#00D4FF"/>
<line x1="31.664" y1="224.805" x2="55.0615" y2="236.504" stroke="#C4C4C4"/>
<line x1="31.8565" y1="224.975" x2="34.7811" y2="229.362" stroke="#C4C4C4"/>
<line x1="43.4811" y1="225.619" x2="55.1799" y2="236.586" stroke="#C4C4C4"/>
<circle cx="43.3009" cy="224.237" r="1.04646" stroke="#00D4FF"/>
<line x1="35.1318" y1="234.99" x2="55.6046" y2="236.453" stroke="#00D4FF"/>
<line x1="53.0981" y1="235.905" x2="35.55" y2="224.206" stroke="#C4C4C4"/>
<line x1="39.0648" y1="224.131" x2="53.6882" y2="235.83" stroke="#C4C4C4"/>
<line x1="30.9292" y1="223.737" x2="41.7544" y2="223.737" stroke="#00D4FF"/>
<line x1="35.2432" y1="229.893" x2="54.2537" y2="235.742" stroke="#C4C4C4"/>
<circle cx="34.022" cy="230.423" r="1.04646" stroke="#00D4FF"/>
<line x1="44.2349" y1="224.911" x2="55.2025" y2="236.609" stroke="#00D4FF"/>
<line x1="30.941" y1="225.541" x2="46.2956" y2="233.584" stroke="#C4C4C4"/>
<line x1="35.2336" y1="230.621" x2="55.7064" y2="236.47" stroke="#00D4FF"/>
<circle cx="30.9288" cy="224.237" r="1.04646" stroke="#00D4FF"/>
<line x1="43.5356" y1="223.419" x2="50.8474" y2="216.838" stroke="#00D4FF"/>
<line x1="26.0266" y1="210.957" x2="47.9617" y2="194.871" stroke="#00D4FF"/>
<line x1="49.4833" y1="195.204" x2="52.4079" y2="215.677" stroke="#00D4FF"/>
<line x1="52.6051" y1="215.98" x2="70.8844" y2="214.518" stroke="#00D4FF"/>
<line x1="49.7749" y1="194.046" x2="76.0971" y2="196.971" stroke="#00D4FF"/>
<line x1="49.3981" y1="193.429" x2="85.9567" y2="162.72" stroke="#00D4FF"/>
<line x1="56.7588" y1="235.801" x2="71.3822" y2="226.296" stroke="#00D4FF"/>
<line x1="56.978" y1="236.454" x2="97.9236" y2="232.067" stroke="#00D4FF"/>
<line x1="79.9829" y1="283.973" x2="56.5854" y2="237.909" stroke="#00D4FF"/>
<line x1="34.5225" y1="235.062" x2="34.5225" y2="245.887" stroke="#00D4FF"/>
<line x1="34.8992" y1="245.997" x2="55.372" y2="237.223" stroke="#00D4FF"/>
<line x1="93.1957" y1="139.399" x2="98.3139" y2="132.818" stroke="#00D4FF"/>
<line x1="99.9322" y1="132.312" x2="102.126" y2="145.473" stroke="#00D4FF"/>
<line x1="97.0392" y1="118.777" x2="105.082" y2="115.122" stroke="#00D4FF"/>
<line x1="246.785" y1="186.145" x2="388.632" y2="45.7603" stroke="#F8B500"/>
<line x1="228.037" y1="72.6765" x2="388.141" y2="44.0341" stroke="#F8B500"/>
<line x1="393.012" y1="45.7826" x2="484.409" y2="148.147" stroke="#F8B500"/>
<line x1="247.79" y1="187.469" x2="483.942" y2="150.799" stroke="#F8B500"/>
<line x1="402.612" y1="201.43" x2="483.772" y2="150.979" stroke="#F8B500"/>
<line x1="247.911" y1="188.196" x2="397.07" y2="201.357" stroke="#F8B500"/>
<line x1="249.554" y1="203.601" x2="271.489" y2="214.569" stroke="#00D4FF"/>
<line x1="273.411" y1="214.518" x2="396.979" y2="202.82" stroke="#F8B500"/>
<line x1="24.4694" y1="258.574" x2="33.2435" y2="247.607" stroke="#00D4FF"/>
<line x1="34.8455" y1="248.513" x2="39.2325" y2="263.867" stroke="#00D4FF"/>
<line x1="29.0609" y1="261.544" x2="25.405" y2="260.082" stroke="#C4C4C4"/>
<line x1="29.8823" y1="262.898" x2="29.8823" y2="265.991" stroke="#C4C4C4"/>
<line x1="23.5353" y1="264.255" x2="28.6535" y2="265.717" stroke="#C4C4C4"/>
<line x1="22.2018" y1="263.819" x2="23.6641" y2="260.163" stroke="#C4C4C4"/>
<line x1="26.5917" y1="274.434" x2="22.9358" y2="265.659" stroke="#C4C4C4"/>
<line x1="27.8364" y1="276.316" x2="30.9293" y2="276.316" stroke="#C4C4C4"/>
<line x1="39.2332" y1="272.641" x2="40.6955" y2="277.76" stroke="#C4C4C4"/>
<line x1="39.7834" y1="273.11" x2="48.5575" y2="279.69" stroke="#C4C4C4"/>
<line x1="39.7204" y1="273.07" x2="58.7309" y2="283.306" stroke="#C4C4C4"/>
<line x1="37.753" y1="272.469" x2="29.7102" y2="267.351" stroke="#C4C4C4"/>
<line x1="23.7911" y1="265.158" x2="31.834" y2="275.395" stroke="#C4C4C4"/>
<line x1="40.6999" y1="279.969" x2="41.4311" y2="282.894" stroke="#C4C4C4"/>
<line x1="32.6457" y1="277.739" x2="35.5704" y2="286.513" stroke="#C4C4C4"/>
<line x1="36.3013" y1="286.242" x2="39.9572" y2="284.049" stroke="#C4C4C4"/>
<line x1="39.8994" y1="292.974" x2="41.3618" y2="295.168" stroke="#C4C4C4"/>
<line x1="36.9873" y1="287.145" x2="39.1809" y2="290.801" stroke="#C4C4C4"/>
<line x1="35.4678" y1="288.468" x2="28.8873" y2="295.779" stroke="#C4C4C4"/>
<line x1="27.8364" y1="296.42" x2="40.2081" y2="296.42" stroke="#C4C4C4"/>
<line x1="28.3192" y1="295.717" x2="38.5556" y2="291.33" stroke="#C4C4C4"/>
<line x1="21.6299" y1="285.678" x2="27.4793" y2="295.183" stroke="#C4C4C4"/>
<line x1="21.6509" y1="285.595" x2="26.2903" y2="285.595" stroke="#C4C4C4"/>
<line x1="27.1848" y1="284.726" x2="35.2277" y2="286.92" stroke="#C4C4C4"/>
<line x1="24.4246" y1="278.225" x2="35.3922" y2="286.268" stroke="#C4C4C4"/>
<line x1="23.9708" y1="276.691" x2="26.1643" y2="275.96" stroke="#C4C4C4"/>
<line x1="19.9978" y1="284.319" x2="22.1913" y2="277.739" stroke="#C4C4C4"/>
<mask id="path-374-inside-10" fill="white">
<ellipse cx="27.0633" cy="275.27" rx="0.77323" ry="1.54646"/>
</mask>
<path d="M26.8365 275.27C26.8365 275.575 26.7725 275.802 26.7156 275.916C26.6873 275.973 26.6795 275.964 26.7184 275.931C26.7638 275.893 26.8832 275.816 27.0633 275.816V277.816C27.8596 277.816 28.3114 277.197 28.5045 276.811C28.7274 276.365 28.8365 275.818 28.8365 275.27H26.8365ZM27.0633 275.816C27.2434 275.816 27.3627 275.893 27.4081 275.931C27.4471 275.964 27.4392 275.973 27.4109 275.916C27.3541 275.802 27.29 275.575 27.29 275.27H25.29C25.29 275.818 25.3991 276.365 25.6221 276.811C25.8152 277.197 26.2669 277.816 27.0633 277.816V275.816ZM27.29 275.27C27.29 274.964 27.3541 274.737 27.4109 274.624C27.4392 274.567 27.4471 274.575 27.4081 274.608C27.3627 274.647 27.2434 274.723 27.0633 274.723V272.723C26.2669 272.723 25.8152 273.343 25.6221 273.729C25.3991 274.175 25.29 274.721 25.29 275.27H27.29ZM27.0633 274.723C26.8832 274.723 26.7638 274.647 26.7184 274.608C26.6795 274.575 26.6873 274.567 26.7156 274.624C26.7725 274.737 26.8365 274.964 26.8365 275.27H28.8365C28.8365 274.721 28.7274 274.175 28.5045 273.729C28.3114 273.343 27.8596 272.723 27.0633 272.723V274.723Z" fill="#00D4FF" mask="url(#path-374-inside-10)"/>
<circle cx="23.1973" cy="278.363" r="1.04646" stroke="#00D4FF"/>
<circle cx="26.2896" cy="284.549" r="1.04646" stroke="#00D4FF"/>
<circle cx="35.5689" cy="287.642" r="1.04646" stroke="#00D4FF"/>
<line x1="41.7544" y1="296.42" x2="57.219" y2="296.42" stroke="#C4C4C4"/>
<mask id="path-380-inside-11" fill="white">
<ellipse cx="58.7657" cy="296.147" rx="1.54646" ry="0.77323"/>
</mask>
<path d="M59.3122 296.147C59.3122 295.967 59.3887 295.848 59.4272 295.802C59.4601 295.763 59.4686 295.771 59.412 295.8C59.2983 295.856 59.0712 295.92 58.7657 295.92V297.92C59.3143 297.92 59.8605 297.811 60.3064 297.588C60.6926 297.395 61.3122 296.944 61.3122 296.147H59.3122ZM58.7657 295.92C58.4602 295.92 58.2331 295.856 58.1194 295.8C58.0628 295.771 58.0713 295.763 58.1042 295.802C58.1427 295.848 58.2192 295.967 58.2192 296.147H56.2192C56.2192 296.944 56.8388 297.395 57.225 297.588C57.6709 297.811 58.2171 297.92 58.7657 297.92V295.92ZM58.2192 296.147C58.2192 296.327 58.1427 296.447 58.1042 296.492C58.0713 296.531 58.0628 296.523 58.1194 296.495C58.2331 296.438 58.4602 296.374 58.7657 296.374V294.374C58.2171 294.374 57.6709 294.483 57.225 294.706C56.8388 294.899 56.2192 295.351 56.2192 296.147H58.2192ZM58.7657 296.374C59.0712 296.374 59.2983 296.438 59.412 296.495C59.4686 296.523 59.4601 296.531 59.4272 296.492C59.3887 296.447 59.3122 296.327 59.3122 296.147H61.3122C61.3122 295.351 60.6926 294.899 60.3064 294.706C59.8605 294.483 59.3143 294.374 58.7657 294.374V296.374Z" fill="#00D4FF" mask="url(#path-380-inside-11)"/>
<line x1="57.4538" y1="295.838" x2="47.2174" y2="287.795" stroke="#C4C4C4"/>
<line x1="23.1968" y1="296.42" x2="26.2897" y2="296.42" stroke="#C4C4C4"/>
<mask id="path-384-inside-12" fill="white">
<ellipse cx="27.8365" cy="296.147" rx="1.54646" ry="0.77323"/>
</mask>
<path d="M28.383 296.147C28.383 295.967 28.4595 295.848 28.498 295.802C28.5309 295.763 28.5394 295.771 28.4828 295.8C28.3691 295.856 28.142 295.92 27.8365 295.92V297.92C28.3851 297.92 28.9313 297.811 29.3772 297.588C29.7634 297.395 30.383 296.944 30.383 296.147H28.383ZM27.8365 295.92C27.531 295.92 27.3039 295.856 27.1902 295.8C27.1336 295.771 27.1421 295.763 27.175 295.802C27.2135 295.848 27.29 295.967 27.29 296.147H25.29C25.29 296.944 25.9096 297.395 26.2958 297.588C26.7417 297.811 27.2879 297.92 27.8365 297.92V295.92ZM27.29 296.147C27.29 296.327 27.2135 296.447 27.175 296.492C27.1421 296.531 27.1336 296.523 27.1902 296.495C27.3039 296.438 27.531 296.374 27.8365 296.374V294.374C27.2879 294.374 26.7417 294.483 26.2958 294.706C25.9096 294.899 25.29 295.351 25.29 296.147H27.29ZM27.8365 296.374C28.142 296.374 28.3691 296.438 28.4828 296.495C28.5394 296.523 28.5309 296.531 28.498 296.492C28.4595 296.447 28.383 296.327 28.383 296.147H30.383C30.383 295.351 29.7634 294.899 29.3772 294.706C28.9313 294.483 28.3851 294.374 27.8365 294.374V296.374Z" fill="#00D4FF" mask="url(#path-384-inside-12)"/>
<line x1="20.9707" y1="285.902" x2="21.7019" y2="295.407" stroke="#C4C4C4"/>
<circle cx="20.1041" cy="284.549" r="1.04646" stroke="#00D4FF"/>
<mask id="path-388-inside-13" fill="white">
<ellipse cx="21.6505" cy="296.147" rx="1.54646" ry="0.77323"/>
</mask>
<path d="M22.1969 296.147C22.1969 295.967 22.2735 295.848 22.3119 295.802C22.3449 295.763 22.3534 295.771 22.2968 295.8C22.183 295.856 21.9559 295.92 21.6505 295.92V297.92C22.1991 297.92 22.7452 297.811 23.1912 297.588C23.5773 297.395 24.1969 296.944 24.1969 296.147H22.1969ZM21.6505 295.92C21.345 295.92 21.1179 295.856 21.0042 295.8C20.9476 295.771 20.9561 295.763 20.989 295.802C21.0274 295.848 21.104 295.967 21.104 296.147H19.104C19.104 296.944 19.7236 297.395 20.1097 297.588C20.5557 297.811 21.1018 297.92 21.6505 297.92V295.92ZM21.104 296.147C21.104 296.327 21.0274 296.447 20.989 296.492C20.9561 296.531 20.9476 296.523 21.0042 296.495C21.1179 296.438 21.345 296.374 21.6505 296.374V294.374C21.1018 294.374 20.5557 294.483 20.1097 294.706C19.7236 294.899 19.104 295.351 19.104 296.147H21.104ZM21.6505 296.374C21.9559 296.374 22.183 296.438 22.2968 296.495C22.3534 296.523 22.3449 296.531 22.3119 296.492C22.2735 296.447 22.1969 296.327 22.1969 296.147H24.1969C24.1969 295.351 23.5773 294.899 23.1912 294.706C22.7452 294.483 22.1991 294.374 21.6505 294.374V296.374Z" fill="#00D4FF" mask="url(#path-388-inside-13)"/>
<mask id="path-390-inside-14" fill="white">
<ellipse cx="13.1448" cy="320.117" rx="0.77323" ry="1.54646"/>
</mask>
<path d="M12.918 320.117C12.918 320.423 12.854 320.65 12.7971 320.764C12.7688 320.82 12.761 320.812 12.7999 320.779C12.8454 320.74 12.9647 320.664 13.1448 320.664V322.664C13.9412 322.664 14.3929 322.044 14.586 321.658C14.809 321.212 14.918 320.666 14.918 320.117H12.918ZM13.1448 320.664C13.3249 320.664 13.4442 320.74 13.4897 320.779C13.5286 320.812 13.5208 320.82 13.4925 320.764C13.4356 320.65 13.3716 320.423 13.3716 320.117H11.3716C11.3716 320.666 11.4806 321.212 11.7036 321.658C11.8967 322.044 12.3485 322.664 13.1448 322.664V320.664ZM13.3716 320.117C13.3716 319.812 13.4356 319.585 13.4925 319.471C13.5208 319.414 13.5286 319.423 13.4897 319.456C13.4442 319.494 13.3249 319.571 13.1448 319.571V317.571C12.3485 317.571 11.8967 318.19 11.7036 318.577C11.4806 319.023 11.3716 319.569 11.3716 320.117H13.3716ZM13.1448 319.571C12.9647 319.571 12.8454 319.494 12.7999 319.456C12.761 319.423 12.7688 319.414 12.7971 319.471C12.854 319.585 12.918 319.812 12.918 320.117H14.918C14.918 319.569 14.809 319.023 14.586 318.577C14.3929 318.19 13.9412 317.571 13.1448 317.571V319.571Z" fill="#00D4FF" mask="url(#path-390-inside-14)"/>
<line x1="33.0609" y1="275.96" x2="39.6415" y2="278.154" stroke="#C4C4C4"/>
<circle cx="32.4757" cy="276.816" r="1.04646" stroke="#00D4FF"/>
<line x1="39.1056" y1="278.224" x2="29.6003" y2="267.257" stroke="#C4C4C4"/>
<line x1="59.036" y1="295.713" x2="78.7776" y2="287.67" stroke="#C4C4C4"/>
<line x1="30.7984" y1="262.05" x2="38.8413" y2="263.513" stroke="#C4C4C4"/>
<circle cx="29.3829" cy="261.352" r="1.04646" stroke="#00D4FF"/>
<line x1="39.037" y1="263.594" x2="67.5527" y2="283.335" stroke="#C4C4C4"/>
<line x1="69.5375" y1="283.983" x2="79.0427" y2="285.445" stroke="#C4C4C4"/>
<line x1="39.0621" y1="263.736" x2="55.879" y2="237.414" stroke="#00D4FF"/>
<circle cx="55.6724" cy="236.608" r="1.04646" stroke="#00D4FF"/>
<line x1="68.2483" y1="282.418" x2="55.8184" y2="237.817" stroke="#00D4FF"/>
<line x1="58.2559" y1="290.976" x2="58.9871" y2="295.363" stroke="#C4C4C4"/>
<line x1="57.7192" y1="284.549" x2="57.7192" y2="289.188" stroke="#C4C4C4"/>
<line x1="56.7282" y1="290.724" x2="41.3736" y2="279.026" stroke="#C4C4C4"/>
<line x1="58.4058" y1="289.835" x2="78.8786" y2="286.179" stroke="#C4C4C4"/>
<circle cx="57.2188" cy="290.735" r="1.04646" stroke="#00D4FF"/>
<line x1="38.9214" y1="273.039" x2="67.4371" y2="283.276" stroke="#C4C4C4"/>
<line x1="42.0298" y1="284.124" x2="44.9545" y2="287.048" stroke="#C4C4C4"/>
<circle cx="40.9812" cy="283.776" r="0.5" stroke="#00D4FF" stroke-width="0.54646"/>
<line x1="41.2291" y1="295.222" x2="44.8849" y2="287.91" stroke="#C4C4C4"/>
<mask id="path-412-inside-15" fill="white">
<ellipse cx="41.7545" cy="296.147" rx="1.54646" ry="0.77323"/>
</mask>
<path d="M42.3009 296.147C42.3009 295.967 42.3775 295.848 42.4159 295.802C42.4489 295.763 42.4574 295.771 42.4008 295.8C42.287 295.856 42.0599 295.92 41.7545 295.92V297.92C42.3031 297.92 42.8492 297.811 43.2952 297.588C43.6814 297.395 44.3009 296.944 44.3009 296.147H42.3009ZM41.7545 295.92C41.449 295.92 41.2219 295.856 41.1082 295.8C41.0516 295.771 41.0601 295.763 41.093 295.802C41.1314 295.848 41.208 295.967 41.208 296.147H39.208C39.208 296.944 39.8276 297.395 40.2137 297.588C40.6597 297.811 41.2058 297.92 41.7545 297.92V295.92ZM41.208 296.147C41.208 296.327 41.1314 296.447 41.093 296.492C41.0601 296.531 41.0516 296.523 41.1082 296.495C41.2219 296.438 41.449 296.374 41.7545 296.374V294.374C41.2058 294.374 40.6597 294.483 40.2137 294.706C39.8276 294.899 39.208 295.351 39.208 296.147H41.208ZM41.7545 296.374C42.0599 296.374 42.287 296.438 42.4008 296.495C42.4574 296.523 42.4489 296.531 42.4159 296.492C42.3775 296.447 42.3009 296.327 42.3009 296.147H44.3009C44.3009 295.351 43.6814 294.899 43.2952 294.706C42.8492 294.483 42.3031 294.374 41.7545 294.374V296.374Z" fill="#00D4FF" mask="url(#path-412-inside-15)"/>
<mask id="path-414-inside-16" fill="white">
<ellipse cx="39.4349" cy="292.281" rx="0.77323" ry="1.54646"/>
</mask>
<path d="M39.2081 292.281C39.2081 292.587 39.144 292.814 39.0872 292.927C39.0589 292.984 39.051 292.975 39.09 292.943C39.1354 292.904 39.2548 292.828 39.4349 292.828V294.828C40.2312 294.828 40.683 294.208 40.876 293.822C41.099 293.376 41.2081 292.83 41.2081 292.281H39.2081ZM39.4349 292.828C39.6149 292.828 39.7343 292.904 39.7797 292.943C39.8187 292.975 39.8108 292.984 39.7825 292.927C39.7257 292.814 39.6616 292.587 39.6616 292.281H37.6616C37.6616 292.83 37.7707 293.376 37.9937 293.822C38.1867 294.208 38.6385 294.828 39.4349 294.828V292.828ZM39.6616 292.281C39.6616 291.976 39.7257 291.749 39.7825 291.635C39.8108 291.578 39.8187 291.587 39.7797 291.62C39.7343 291.658 39.6149 291.735 39.4349 291.735V289.735C38.6385 289.735 38.1867 290.354 37.9937 290.74C37.7707 291.186 37.6616 291.732 37.6616 292.281H39.6616ZM39.4349 291.735C39.2548 291.735 39.1354 291.658 39.09 291.62C39.051 291.587 39.0589 291.578 39.0872 291.635C39.144 291.749 39.2081 291.976 39.2081 292.281H41.2081C41.2081 291.732 41.099 291.186 40.876 290.74C40.683 290.354 40.2312 289.735 39.4349 289.735V291.735Z" fill="#00D4FF" mask="url(#path-414-inside-16)"/>
<circle cx="46.3941" cy="287.642" r="1.04646" stroke="#00D4FF"/>
<line x1="12.8991" y1="321.209" x2="4.85624" y2="343.144" stroke="#00D4FF"/>
<line x1="12.6969" y1="319.388" x2="21.471" y2="297.453" stroke="#00D4FF"/>
<line x1="14.3852" y1="319.865" x2="57.5243" y2="296.468" stroke="#00D4FF"/>
<line x1="5.51386" y1="343.331" x2="57.427" y2="296.536" stroke="#00D4FF"/>
<line x1="30.067" y1="265.706" x2="38.1099" y2="267.168" stroke="#C4C4C4"/>
<circle cx="29.3829" cy="265.991" r="1.04646" stroke="#00D4FF"/>
<line x1="38.4687" y1="269.63" x2="39.1999" y2="271.093" stroke="#C4C4C4"/>
<circle cx="38.6617" cy="272.177" r="1.04646" stroke="#00D4FF"/>
<line x1="38.9895" y1="267.951" x2="67.5052" y2="283.306" stroke="#C4C4C4"/>
<mask id="path-426-inside-17" fill="white">
<ellipse cx="68.044" cy="283.776" rx="1.54646" ry="0.77323"/>
</mask>
<path d="M68.5905 283.776C68.5905 283.595 68.667 283.476 68.7055 283.431C68.7384 283.392 68.7469 283.4 68.6903 283.428C68.5766 283.485 68.3495 283.549 68.044 283.549V285.549C68.5926 285.549 69.1388 285.44 69.5847 285.217C69.9709 285.024 70.5905 284.572 70.5905 283.776H68.5905ZM68.044 283.549C67.7386 283.549 67.5115 283.485 67.3977 283.428C67.3411 283.4 67.3496 283.392 67.3826 283.431C67.421 283.476 67.4976 283.595 67.4976 283.776H65.4976C65.4976 284.572 66.1171 285.024 66.5033 285.217C66.9493 285.44 67.4954 285.549 68.044 285.549V283.549ZM67.4976 283.776C67.4976 283.956 67.421 284.075 67.3826 284.12C67.3496 284.159 67.3411 284.152 67.3977 284.123C67.5115 284.066 67.7386 284.002 68.044 284.002V282.002C67.4954 282.002 66.9493 282.111 66.5033 282.334C66.1171 282.527 65.4976 282.979 65.4976 283.776H67.4976ZM68.044 284.002C68.3495 284.002 68.5766 284.066 68.6903 284.123C68.7469 284.152 68.7384 284.159 68.7055 284.12C68.667 284.075 68.5905 283.956 68.5905 283.776H70.5905C70.5905 282.979 69.9709 282.527 69.5847 282.334C69.1388 282.111 68.5926 282.002 68.044 282.002V284.002Z" fill="#00D4FF" mask="url(#path-426-inside-17)"/>
<line x1="38.7454" y1="265.519" x2="38.518" y2="267.712" stroke="#C4C4C4"/>
<circle cx="38.6617" cy="264.445" r="1.04646" stroke="#00D4FF"/>
<mask id="path-430-inside-18" fill="white">
<ellipse cx="38.6617" cy="268.311" rx="1.54646" ry="0.77323"/>
</mask>
<path d="M39.2082 268.311C39.2082 268.131 39.2847 268.011 39.3232 267.966C39.3561 267.927 39.3646 267.935 39.308 267.963C39.1943 268.02 38.9672 268.084 38.6617 268.084V270.084C39.2103 270.084 39.7564 269.975 40.2024 269.752C40.5886 269.559 41.2082 269.107 41.2082 268.311H39.2082ZM38.6617 268.084C38.3562 268.084 38.1291 268.02 38.0154 267.963C37.9588 267.935 37.9673 267.927 38.0002 267.966C38.0387 268.011 38.1152 268.131 38.1152 268.311H36.1152C36.1152 269.107 36.7348 269.559 37.121 269.752C37.5669 269.975 38.1131 270.084 38.6617 270.084V268.084ZM38.1152 268.311C38.1152 268.491 38.0387 268.61 38.0002 268.656C37.9673 268.695 37.9588 268.687 38.0154 268.658C38.1291 268.602 38.3562 268.538 38.6617 268.538V266.538C38.1131 266.538 37.5669 266.647 37.121 266.87C36.7348 267.063 36.1152 267.514 36.1152 268.311H38.1152ZM38.6617 268.538C38.9672 268.538 39.1943 268.602 39.308 268.658C39.3646 268.687 39.3561 268.695 39.3232 268.656C39.2847 268.61 39.2082 268.491 39.2082 268.311H41.2082C41.2082 267.514 40.5886 267.063 40.2024 266.87C39.7564 266.647 39.2103 266.538 38.6617 266.538V268.538Z" fill="#00D4FF" mask="url(#path-430-inside-18)"/>
<line x1="59.1831" y1="284.71" x2="67.9571" y2="283.979" stroke="#C4C4C4"/>
<line x1="59.2615" y1="284.71" x2="79.0032" y2="286.172" stroke="#C4C4C4"/>
<circle cx="81.9621" cy="286.095" r="2.59292" stroke="#00D4FF"/>
<line x1="40.4005" y1="277.433" x2="47.7123" y2="280.357" stroke="#C4C4C4"/>
<line x1="49.9054" y1="281.088" x2="57.2171" y2="284.013" stroke="#C4C4C4"/>
<circle cx="40.2081" cy="278.363" r="1.04646" stroke="#00D4FF"/>
<circle cx="58.7657" cy="284.549" r="1.04646" stroke="#00D4FF"/>
<circle cx="49.4864" cy="281.456" r="1.04646" stroke="#00D4FF"/>
<line x1="273.225" y1="215.705" x2="275.419" y2="241.296" stroke="#00D4FF"/>
<line x1="273.709" y1="242.503" x2="245.924" y2="258.588" stroke="#00D4FF"/>
<line x1="274.585" y1="243.106" x2="242.413" y2="284.783" stroke="#00D4FF"/>
<line x1="243.314" y1="285.468" x2="268.173" y2="276.694" stroke="#00D4FF"/>
<line x1="257.1" y1="298.789" x2="242.477" y2="289.284" stroke="#00D4FF"/>
<line x1="239.478" y1="315.557" x2="257.026" y2="298.74" stroke="#00D4FF"/>
<line x1="290.622" y1="256.322" x2="270.15" y2="276.063" stroke="#00D4FF"/>
<line x1="268.784" y1="277.396" x2="258.548" y2="297.137" stroke="#00D4FF"/>
<line x1="258.9" y1="297.874" x2="275.717" y2="300.067" stroke="#00D4FF"/>
<line x1="277.101" y1="300.794" x2="306.348" y2="300.063" stroke="#00D4FF"/>
<line x1="258.664" y1="297.169" x2="298.879" y2="282.545" stroke="#00D4FF"/>
<line x1="304.376" y1="276.158" x2="258.312" y2="297.362" stroke="#00D4FF"/>
<line x1="305.224" y1="276.814" x2="300.106" y2="281.201" stroke="#00D4FF"/>
<line x1="275.626" y1="241.57" x2="304.142" y2="240.108" stroke="#00D4FF"/>
<line x1="275.985" y1="242.428" x2="289.878" y2="254.858" stroke="#00D4FF"/>
<line x1="291.365" y1="254.166" x2="303.795" y2="240.274" stroke="#00D4FF"/>
<line x1="258.442" y1="297.33" x2="290.613" y2="256.384" stroke="#00D4FF"/>
<line x1="258.533" y1="297.24" x2="306.79" y2="260.681" stroke="#00D4FF"/>
<line x1="308.322" y1="261.044" x2="309.054" y2="271.281" stroke="#00D4FF"/>
<line x1="306.007" y1="274.619" x2="308.201" y2="272.425" stroke="#00D4FF"/>
<line x1="305.295" y1="238.773" x2="312.607" y2="232.193" stroke="#00D4FF"/>
<line x1="313.432" y1="230.422" x2="313.432" y2="224.237" stroke="#00D4FF"/>
<line x1="275.439" y1="240.886" x2="312.729" y2="223.338" stroke="#00D4FF"/>
<line x1="314.611" y1="223.335" x2="330.697" y2="230.647" stroke="#00D4FF"/>
<line x1="324.976" y1="238.107" x2="330.095" y2="231.526" stroke="#00D4FF"/>
<line x1="324.356" y1="238.825" x2="314.85" y2="232.244" stroke="#00D4FF"/>
<line x1="318.578" y1="246.178" x2="306.148" y2="240.329" stroke="#00D4FF"/>
<line x1="291.895" y1="254.756" x2="307.25" y2="259.874" stroke="#00D4FF"/>
<line x1="308.189" y1="259.276" x2="319.157" y2="247.577" stroke="#00D4FF"/>
<line x1="309.697" y1="270.933" x2="318.471" y2="263.621" stroke="#00D4FF"/>
<line x1="320.617" y1="247.434" x2="320.617" y2="262.898" stroke="#00D4FF"/>
<line x1="319.853" y1="245.426" x2="324.24" y2="239.576" stroke="#00D4FF"/>
<line x1="325.843" y1="240.441" x2="330.23" y2="252.871" stroke="#00D4FF"/>
<line x1="319.93" y1="262.16" x2="329.436" y2="254.118" stroke="#00D4FF"/>
<line x1="300.24" y1="283.549" x2="306.82" y2="298.904" stroke="#00D4FF"/>
<line x1="240.137" y1="319.183" x2="247.448" y2="325.033" stroke="#00D4FF"/>
<line x1="248.131" y1="324.513" x2="257.636" y2="299.654" stroke="#00D4FF"/>
<line x1="249.009" y1="324.309" x2="276.062" y2="301.642" stroke="#00D4FF"/>
<line x1="249.936" y1="324.939" x2="269.677" y2="319.821" stroke="#00D4FF"/>
<line x1="271.203" y1="319.078" x2="277.052" y2="318.346" stroke="#00D4FF"/>
<line x1="278.175" y1="319.198" x2="302.303" y2="340.402" stroke="#00D4FF"/>
<line x1="278.408" y1="317.64" x2="309.118" y2="306.673" stroke="#00D4FF"/>
<line x1="307.509" y1="301.017" x2="310.433" y2="305.404" stroke="#00D4FF"/>
<line x1="319.998" y1="264.16" x2="308.299" y2="299.987" stroke="#00D4FF"/>
<line x1="330.937" y1="254.723" x2="308.271" y2="300.056" stroke="#00D4FF"/>
<line x1="331.15" y1="253.273" x2="341.386" y2="251.811" stroke="#00D4FF"/>
<line x1="332.399" y1="231.61" x2="341.905" y2="250.62" stroke="#00D4FF"/>
<line x1="327.134" y1="277.643" x2="341.757" y2="252.784" stroke="#00D4FF"/>
<line x1="310.316" y1="305.429" x2="325.67" y2="279.107" stroke="#00D4FF"/>
<line x1="343.324" y1="252.012" x2="370.377" y2="289.302" stroke="#00D4FF"/>
<line x1="326.576" y1="279.521" x2="306.103" y2="339.477" stroke="#00D4FF"/>
<line x1="370.271" y1="294.384" x2="307.39" y2="341.179" stroke="#00D4FF"/>
<line x1="302.229" y1="417.704" x2="270.789" y2="320.459" stroke="#00D4FF"/>
<line x1="314.288" y1="222.573" x2="396.91" y2="202.831" stroke="#F8B500"/>
<line x1="398.082" y1="204.429" x2="343.244" y2="251.224" stroke="#F8B500"/>
<line x1="371.69" y1="289.443" x2="398.743" y2="205.358" stroke="#F8B500"/>
<line x1="402.123" y1="201.355" x2="551.282" y2="194.775" stroke="#F8B500"/>
<line x1="489.429" y1="151.718" x2="551.579" y2="192.663" stroke="#F8B500"/>
<line x1="373.398" y1="289.883" x2="551.804" y2="197.024" stroke="#F8B500"/>
<line x1="374.515" y1="292.776" x2="509.05" y2="336.647" stroke="#F8B500"/>
<line x1="512.801" y1="334.793" x2="551.553" y2="197.332" stroke="#F8B500"/>
<line x1="556.405" y1="196.752" x2="659.501" y2="296.906" stroke="#F8B500"/>
<line x1="661.965" y1="296.756" x2="695.599" y2="190.736" stroke="#F8B500"/>
<line x1="488.9" y1="148.049" x2="600.038" y2="82.2438" stroke="#F8B500"/>
<line x1="489.243" y1="150.912" x2="692.508" y2="187.471" stroke="#F8B500"/>
<line x1="694.232" y1="185.363" x2="605.76" y2="81.5363" stroke="#F8B500"/>
<line x1="178.858" y1="374.928" x2="260.749" y2="546.753" stroke="#00D4FF"/>
<line x1="303.181" y1="422.821" x2="263.698" y2="546.389" stroke="#00D4FF"/>
<line x1="362.312" y1="477.865" x2="305.281" y2="422.296" stroke="#00D4FF"/>
<line x1="513.7" y1="335.27" x2="694.299" y2="189.767" stroke="#F8B500"/>
<circle cx="159.285" cy="15.4646" r="2.59292" stroke="#00D4FF"/>
</svg>
